<svg width="30" height="30" viewBox="0 0 30 30" fill="none" xmlns="http://www.w3.org/2000/svg">
<rect width="30" height="30" rx="10" fill="#F1C34A"/>
<path d="M12.375 17.625L16.875 11.625L12.375 17.625ZM16.5 15.375C16.0853 15.375 15.75 15.8783 15.75 16.5C15.75 17.1217 16.0853 17.625 16.5 17.625C16.9147 17.625 17.25 17.1217 17.25 16.5C17.25 15.8783 16.9147 15.375 16.5 15.375ZM12.75 11.625C12.3353 11.625 12 12.1283 12 12.75C12 13.3717 12.3353 13.875 12.75 13.875C13.1647 13.875 13.5 13.3717 13.5 12.75C13.5 12.1283 13.1647 11.625 12.75 11.625ZM11.625 20.625H17.625C19.2819 20.625 20.625 19.2819 20.625 17.625V11.625C20.625 9.96815 19.2819 8.625 17.625 8.625H11.625C9.96815 8.625 8.625 9.96815 8.625 11.625V17.625C8.625 19.2819 9.96815 20.625 11.625 20.625Z" stroke="white" stroke-linecap="round" stroke-linejoin="round"/>
</svg>
