<svg width="18" height="15" viewBox="0 0 18 15" fill="none" xmlns="http://www.w3.org/2000/svg">
<path d="M14.4383 1H2.90238C2.1329 1.00092 1.39521 1.307 0.851105 1.85111C0.307003 2.39521 0.000921713 3.1329 0 3.90238V11.4576C0.000921713 12.2271 0.307003 12.9648 0.851105 13.5089C1.39521 14.053 2.1329 14.3591 2.90238 14.36H14.4383C15.2078 14.3591 15.9455 14.053 16.4896 13.5089C17.0337 12.9648 17.3398 12.2271 17.3407 11.4576V3.90238C17.3398 3.1329 17.0337 2.39521 16.4896 1.85111C15.9455 1.307 15.2078 1.00092 14.4383 1ZM2.90238 2.16095H14.4383C14.9 2.16144 15.3426 2.34507 15.6691 2.67155C15.9956 2.99802 16.1792 3.44068 16.1797 3.90238V4.66373H1.16095V3.90238C1.16144 3.44068 1.34507 2.99802 1.67155 2.67155C1.99802 2.34507 2.44068 2.16144 2.90238 2.16095ZM14.4383 13.199H2.90238C2.44068 13.1986 1.99802 13.0149 1.67155 12.6885C1.34507 12.362 1.16144 11.9193 1.16095 11.4576V5.82468H16.1797V11.4576C16.1792 11.9193 15.9956 12.362 15.6691 12.6885C15.3426 13.0149 14.9 13.1986 14.4383 13.199ZM14.593 10.4843C14.593 10.6382 14.5319 10.7859 14.423 10.8947C14.3142 11.0036 14.1665 11.0648 14.0126 11.0648H12.6208C12.4669 11.0648 12.3192 11.0036 12.2104 10.8947C12.1015 10.7859 12.0403 10.6382 12.0403 10.4843C12.0403 10.3303 12.1015 10.1827 12.2104 10.0738C12.3192 9.96496 12.4669 9.9038 12.6208 9.9038H14.0126C14.1665 9.9038 14.3142 9.96496 14.423 10.0738C14.5319 10.1827 14.593 10.3303 14.593 10.4843Z" fill="black" stroke="white" stroke-width="0.4"/>
</svg>
