<svg width="30" height="30" viewBox="0 0 30 30" fill="none" xmlns="http://www.w3.org/2000/svg">
<rect width="30" height="30" rx="10" fill="#3E64EF"/>
<g clip-path="url(#clip0_103_2)">
<path d="M18.6543 7.52776H15.8505C15.3605 7.52781 14.8905 7.7221 14.5435 8.06804L6.73179 15.8592C6.58921 16.0014 6.47604 16.1704 6.39875 16.3563C6.32145 16.5423 6.28155 16.7417 6.28131 16.9431C6.28108 17.1444 6.32052 17.3439 6.39738 17.5301C6.47424 17.7162 6.58701 17.8854 6.72926 18.0279L11.9585 23.2685C12.2458 23.5563 12.6356 23.7182 13.0422 23.7187C13.4489 23.7192 13.839 23.5581 14.127 23.271L21.9283 15.4902C22.1007 15.3183 22.2374 15.1141 22.3307 14.8892C22.424 14.6644 22.472 14.4233 22.4719 14.1799V11.3393C22.472 11.1685 22.4383 10.9993 22.3729 10.8416C22.3074 10.6838 22.2115 10.5405 22.0906 10.4198L19.5714 7.90688C19.328 7.66406 18.9981 7.52771 18.6543 7.52776V7.52776Z" stroke="white" stroke-miterlimit="10" stroke-linecap="round" stroke-linejoin="round"/>
<path d="M18.7375 12.1611C19.2426 12.1611 19.6521 11.7516 19.6521 11.2464C19.6521 10.7413 19.2426 10.3318 18.7375 10.3318C18.2324 10.3318 17.8229 10.7413 17.8229 11.2464C17.8229 11.7516 18.2324 12.1611 18.7375 12.1611Z" stroke="white" stroke-miterlimit="10" stroke-linecap="round" stroke-linejoin="round"/>
<path d="M13.7473 10.3321L13.0112 9.59606M22.765 8.11585C22.0349 8.84597 20.3415 9.65822 20.3415 9.65822C20.3415 9.65822 21.1537 7.96482 21.8838 7.23469C22.614 6.50457 23.4031 6.10997 23.6464 6.35325C23.8897 6.59653 23.4951 7.38572 22.765 8.11585V8.11585ZM20.3415 9.65822L18.7451 11.2543L20.3415 9.65822ZM14.6819 13.4478L11.9194 10.6853L14.6819 13.4478ZM12.5008 13.4478L10.8273 11.7743L12.5008 13.4478Z" stroke="white" stroke-miterlimit="10" stroke-linecap="round" stroke-linejoin="round"/>
</g>
<defs>
<clipPath id="clip0_103_2">
<rect width="17.9994" height="18" fill="white" transform="translate(6 6)"/>
</clipPath>
</defs>
</svg>
