<svg width="24" height="24" viewBox="0 0 24 24" fill="none" xmlns="http://www.w3.org/2000/svg">
<path d="M8.5 16.5H13.5C13.7652 16.5 14.0196 16.6054 14.2071 16.7929C14.3946 16.9804 14.5 17.2348 14.5 17.5C14.5 17.7652 14.3946 18.0196 14.2071 18.2071C14.0196 18.3946 13.7652 18.5 13.5 18.5H8.5V22C8.5 22.2652 8.39464 22.5196 8.20711 22.7071C8.01957 22.8946 7.76522 23 7.5 23C7.23478 23 6.98043 22.8946 6.79289 22.7071C6.60536 22.5196 6.5 22.2652 6.5 22V18.5H5.5C5.23478 18.5 4.98043 18.3946 4.79289 18.2071C4.60536 18.0196 4.5 17.7652 4.5 17.5C4.5 17.2348 4.60536 16.9804 4.79289 16.7929C4.98043 16.6054 5.23478 16.5 5.5 16.5H6.5V14.5H5.5C5.23478 14.5 4.98043 14.3946 4.79289 14.2071C4.60536 14.0196 4.5 13.7652 4.5 13.5C4.5 13.2348 4.60536 12.9804 4.79289 12.7929C4.98043 12.6054 5.23478 12.5 5.5 12.5H6.5V3.5035C6.4998 3.17493 6.56432 2.84954 6.68988 2.54591C6.81543 2.24228 6.99957 1.96635 7.23176 1.73388C7.46395 1.50141 7.73966 1.31695 8.04314 1.19103C8.34662 1.06511 8.67193 1.0002 9.0005 1H13C16.588 1 19.5 3.913 19.5 7.4975V8.0025C19.5 11.5915 16.59 14.5 13 14.5H8.5V16.5ZM13 12.5C15.486 12.5 17.5 10.4865 17.5 8.0025V7.4975C17.5 5.0175 15.483 3 13 3H9.0005C8.725 3 8.5 3.225 8.5 3.5035V12.5H13Z" fill="#E5E5E5"/>
</svg>
