<svg width="30" height="30" viewBox="0 0 30 30" fill="none" xmlns="http://www.w3.org/2000/svg">
<rect width="30" height="30" rx="10" fill="#842FD6"/>
<path d="M8.31976 13.053H21.6878" stroke="white" stroke-linecap="round" stroke-linejoin="round"/>
<path d="M18.3315 15.9825H18.3405" stroke="white" stroke-linecap="round" stroke-linejoin="round"/>
<path d="M15.0037 15.9825H15.0127" stroke="white" stroke-linecap="round" stroke-linejoin="round"/>
<path d="M11.6685 15.9825H11.6775" stroke="white" stroke-linecap="round" stroke-linejoin="round"/>
<path d="M18.3315 18.897H18.3405" stroke="white" stroke-linecap="round" stroke-linejoin="round"/>
<path d="M15.0037 18.897H15.0127" stroke="white" stroke-linecap="round" stroke-linejoin="round"/>
<path d="M11.6685 18.897H11.6775" stroke="white" stroke-linecap="round" stroke-linejoin="round"/>
<path d="M18.033 7.5V9.96825" stroke="white" stroke-linecap="round" stroke-linejoin="round"/>
<path d="M11.9745 7.5V9.96825" stroke="white" stroke-linecap="round" stroke-linejoin="round"/>
<path fill-rule="evenodd" clip-rule="evenodd" d="M18.1787 8.68439H11.8282C9.6257 8.68439 8.25 9.91135 8.25 12.1667V18.9539C8.25 21.2447 9.6257 22.5 11.8282 22.5H18.1717C20.3812 22.5 21.75 21.266 21.75 19.0106V12.1667C21.7569 9.91135 20.3882 8.68439 18.1787 8.68439Z" stroke="white" stroke-linecap="round" stroke-linejoin="round"/>
</svg>
