<svg width="18" height="18" viewBox="0 0 18 18" fill="none" xmlns="http://www.w3.org/2000/svg">
<path d="M4.125 5.625H4.875V6.375C4.875 6.37514 4.875 6.37527 4.875 6.37541C4.87514 6.58241 5.043 6.75014 5.25 6.75C5.25014 6.75 5.25027 6.75 5.25046 6.75C5.45741 6.74986 5.62514 6.582 5.625 6.375V5.625H6.375C6.58209 5.625 6.75 5.45709 6.75 5.25C6.75 5.04291 6.58209 4.875 6.375 4.875H5.625V4.125C5.625 3.91791 5.45709 3.75 5.25 3.75C5.04291 3.75 4.875 3.91791 4.875 4.125V4.875H4.125C3.91791 4.875 3.75 5.04291 3.75 5.25C3.75 5.45709 3.91791 5.625 4.125 5.625ZM4.71973 12.75L3.92432 13.5454C3.854 13.6157 3.81454 13.7111 3.8145 13.8105C3.8145 14.0176 3.98236 14.1855 4.18945 14.1855C4.28893 14.1857 4.38437 14.1461 4.45459 14.0757L5.25 13.2803L6.04541 14.0757C6.11563 14.1461 6.21103 14.1857 6.3105 14.1855C6.40993 14.1855 6.50528 14.146 6.57559 14.0758C6.72208 13.9293 6.72208 13.6919 6.57568 13.5455L5.78023 12.75L6.57568 11.9545C6.57747 11.9528 6.57925 11.951 6.58104 11.9492C6.72597 11.8013 6.72359 11.5639 6.57568 11.419C6.42773 11.274 6.19034 11.2764 6.04541 11.4243L5.25 12.2197L4.45454 11.4243C4.4528 11.4225 4.45102 11.4207 4.44919 11.419C4.30128 11.274 4.06389 11.2764 3.91896 11.4243C3.77399 11.5723 3.77641 11.8097 3.92432 11.9546L4.71973 12.75ZM13.875 4.875H11.625C11.4179 4.875 11.25 5.04291 11.25 5.25C11.25 5.45709 11.4179 5.625 11.625 5.625H13.875C14.0821 5.625 14.25 5.45709 14.25 5.25C14.25 5.04291 14.0821 4.875 13.875 4.875ZM11.625 12H13.875C14.0821 12 14.25 11.8321 14.25 11.625C14.25 11.4179 14.0821 11.25 13.875 11.25H11.625C11.4179 11.25 11.25 11.4179 11.25 11.625C11.25 11.8321 11.4179 12 11.625 12ZM15 0.75H3C1.7579 0.751373 0.751373 1.7579 0.75 3V15C0.751373 16.2421 1.7579 17.2486 3 17.25H9H9.00046H15C16.2421 17.2486 17.2486 16.2421 17.25 15V3C17.2486 1.7579 16.2421 0.751373 15 0.75ZM8.625 16.5H3C2.172 16.4989 1.50105 15.828 1.5 15V9.375H8.625V16.5ZM8.625 8.625H1.5V3C1.50105 2.172 2.172 1.50105 3 1.5H8.625V8.625ZM16.5 15C16.4989 15.828 15.828 16.4989 15 16.5H9.375V9.375H16.5V15ZM16.5 8.625H9.375V1.5H15C15.828 1.50105 16.4989 2.172 16.5 3V8.625ZM11.625 14.25H13.875C14.0821 14.25 14.25 14.0821 14.25 13.875C14.25 13.6679 14.0821 13.5 13.875 13.5H11.625C11.4179 13.5 11.25 13.6679 11.25 13.875C11.25 14.0821 11.4179 14.25 11.625 14.25Z" fill="black"/>
</svg>
