<svg width="129" height="39" viewBox="0 0 129 39" fill="none" xmlns="http://www.w3.org/2000/svg">
<path d="M19.0848 23.7679C20.7633 24.2379 22.0558 25.01 22.9622 26.0843C23.9022 27.125 24.3722 28.3839 24.3722 29.861C24.3722 32.3452 23.1636 34.3594 20.7466 35.9036C18.3295 37.4479 15.241 38.22 11.4811 38.22C7.18408 38.22 3.35705 37.28 0 35.4001L1.81281 30.717C4.56559 32.2612 7.68764 33.0334 11.179 33.0334C13.2939 33.0334 14.9389 32.7144 16.1138 32.0766C17.3224 31.4052 17.9266 30.4988 17.9266 29.3574C17.9266 27.1753 16.1642 26.0843 12.6393 26.0843H7.40229V21.8544H12.1357C13.7135 21.8544 14.9389 21.5858 15.8117 21.0487C16.7181 20.5116 17.1713 19.7562 17.1713 18.7827C17.1713 17.8092 16.6342 17.037 15.5599 16.4663C14.4857 15.8956 13.0086 15.6103 11.1286 15.6103C8.4094 15.6103 5.5727 16.2649 2.6185 17.5742L1.00711 12.9414C4.53202 11.2965 8.09049 10.474 11.6825 10.474C15.1739 10.474 18.0273 11.1622 20.243 12.5386C22.4922 13.915 23.6168 15.6942 23.6168 17.8763C23.6168 19.1855 23.214 20.3605 22.4083 21.4012C21.6026 22.4083 20.4948 23.1972 19.0848 23.7679Z" fill="white"/>
<path d="M40.8755 10.5747C44.8368 10.5747 47.8581 11.5315 49.9395 13.445C52.0544 15.3249 53.1119 18.1784 53.1119 22.0055V37.7668H47.1699V34.4937C45.5921 36.9108 42.7722 38.1193 38.7102 38.1193C35.6888 38.1193 33.255 37.3807 31.4086 35.9036C29.5958 34.393 28.6894 32.4459 28.6894 30.0624C28.6894 27.6453 29.579 25.715 31.3582 24.2715C33.171 22.7944 36.0077 22.0558 39.8684 22.0558H46.8174V21.653C46.8174 19.773 46.2467 18.3295 45.1054 17.3224C43.9975 16.3153 42.3358 15.8117 40.1201 15.8117C36.8302 15.8117 34.111 16.7013 31.9625 18.4806L29.4951 13.8982C32.3486 11.6825 36.142 10.5747 40.8755 10.5747ZM40.0194 33.5369C41.5972 33.5369 42.9904 33.1844 44.1989 32.4794C45.4411 31.7409 46.3139 30.7002 46.8174 29.3574V26.2353H40.3216C36.6959 26.2353 34.8831 27.4271 34.8831 29.8106C34.8831 30.952 35.3363 31.8584 36.2427 32.5298C37.1491 33.2012 38.408 33.5369 40.0194 33.5369Z" fill="white"/>
<path d="M60.9009 37.7668V10.8768H67.1954V28.6021L82.0503 10.8768H87.7909V37.7668H81.4964V20.0416L66.6918 37.7668H60.9009Z" fill="white"/>
<path d="M128.385 37.7668H122.695V19.9409L113.631 34.9469H110.912L101.999 19.8905V37.7668H96.2581V10.8768H102.855L112.422 27.6957L122.443 10.8768H128.335L128.385 37.7668Z" fill="white"/>
<path d="M73.943 7.40229C68.4039 7.40229 65.6008 4.93486 65.5336 0H69.7132C69.7467 1.20854 70.116 2.1653 70.821 2.87028C71.5595 3.57526 72.5834 3.92775 73.8927 3.92775C75.1684 3.92775 76.1755 3.57526 76.914 2.87028C77.6861 2.1653 78.089 1.20854 78.1226 0H82.4028C82.3692 2.41707 81.6307 4.26345 80.1871 5.53913C78.7436 6.78124 76.6622 7.40229 73.943 7.40229Z" fill="black"/>
</svg>
