<svg width="16" height="16" viewBox="0 0 16 16" fill="none" xmlns="http://www.w3.org/2000/svg">
<path d="M2.66667 8.66666C3.03486 8.66666 3.33333 8.36818 3.33333 7.99999C3.33333 7.63181 3.03486 7.33333 2.66667 7.33333C2.29848 7.33333 2 7.63181 2 7.99999C2 8.36818 2.29848 8.66666 2.66667 8.66666Z" fill="black"/>
<path d="M13.3733 7.33333H5.29329C4.94719 7.33333 4.66663 7.6139 4.66663 7.95999V8.04C4.66663 8.38609 4.94719 8.66666 5.29329 8.66666H13.3733C13.7194 8.66666 14 8.38609 14 8.04V7.95999C14 7.6139 13.7194 7.33333 13.3733 7.33333Z" fill="black"/>
<path d="M13.3733 10.6667H2.62667C2.28057 10.6667 2 10.9472 2 11.2933V11.3733C2 11.7194 2.28057 12 2.62667 12H13.3733C13.7194 12 14 11.7194 14 11.3733V11.2933C14 10.9472 13.7194 10.6667 13.3733 10.6667Z" fill="black"/>
<path d="M13.3733 4H2.62667C2.28057 4 2 4.28057 2 4.62667V4.70667C2 5.05277 2.28057 5.33333 2.62667 5.33333H13.3733C13.7194 5.33333 14 5.05277 14 4.70667V4.62667C14 4.28057 13.7194 4 13.3733 4Z" fill="black"/>
</svg>
