<svg width="20" height="17" viewBox="0 0 20 17" fill="none" xmlns="http://www.w3.org/2000/svg">
<path d="M17.9318 14.0909H1.56818C1.35119 14.0909 1.14308 14.1771 0.98964 14.3305C0.836201 14.484 0.75 14.6921 0.75 14.9091C0.75 15.1261 0.836201 15.3342 0.98964 15.4876C1.14308 15.6411 1.35119 15.7273 1.56818 15.7273H17.9318C18.1488 15.7273 18.3569 15.6411 18.5104 15.4876C18.6638 15.3342 18.75 15.1261 18.75 14.9091C18.75 14.6921 18.6638 14.484 18.5104 14.3305C18.3569 14.1771 18.1488 14.0909 17.9318 14.0909ZM4.84091 5.90909C4.67909 5.90909 4.5209 5.95708 4.38635 6.04698C4.2518 6.13688 4.14693 6.26467 4.08501 6.41417C4.02308 6.56367 4.00688 6.72818 4.03845 6.88689C4.07002 7.0456 4.14794 7.19139 4.26237 7.30581C4.37679 7.42024 4.52258 7.49816 4.68129 7.52973C4.84 7.5613 5.00451 7.5451 5.15401 7.48317C5.30352 7.42125 5.4313 7.31638 5.5212 7.18183C5.61111 7.04728 5.65909 6.88909 5.65909 6.72727C5.65909 6.51028 5.57289 6.30217 5.41945 6.14873C5.26601 5.99529 5.0579 5.90909 4.84091 5.90909ZM16.2955 1H3.20455C2.55356 1 1.92924 1.2586 1.46892 1.71892C1.0086 2.17924 0.75 2.80356 0.75 3.45455V10C0.75 10.651 1.0086 11.2753 1.46892 11.7356C1.92924 12.1959 2.55356 12.4545 3.20455 12.4545H16.2955C16.9464 12.4545 17.5708 12.1959 18.0311 11.7356C18.4914 11.2753 18.75 10.651 18.75 10V3.45455C18.75 2.80356 18.4914 2.17924 18.0311 1.71892C17.5708 1.2586 16.9464 1 16.2955 1ZM17.1136 10C17.1136 10.217 17.0274 10.4251 16.874 10.5785C16.7206 10.732 16.5125 10.8182 16.2955 10.8182H3.20455C2.98755 10.8182 2.77944 10.732 2.626 10.5785C2.47256 10.4251 2.38636 10.217 2.38636 10V3.45455C2.38636 3.23755 2.47256 3.02944 2.626 2.876C2.77944 2.72256 2.98755 2.63636 3.20455 2.63636H16.2955C16.5125 2.63636 16.7206 2.72256 16.874 2.876C17.0274 3.02944 17.1136 3.23755 17.1136 3.45455V10ZM9.75 4.27273C9.26454 4.27273 8.78998 4.41668 8.38633 4.68639C7.98268 4.9561 7.66807 5.33945 7.4823 5.78796C7.29652 6.23647 7.24791 6.73 7.34262 7.20613C7.43733 7.68227 7.6711 8.11962 8.01437 8.4629C8.35765 8.80617 8.79501 9.03995 9.27114 9.13466C9.74728 9.22936 10.2408 9.18076 10.6893 8.99498C11.1378 8.8092 11.5212 8.49459 11.7909 8.09095C12.0606 7.6873 12.2045 7.21274 12.2045 6.72727C12.2045 6.07629 11.9459 5.45196 11.4856 4.99165C11.0253 4.53133 10.401 4.27273 9.75 4.27273ZM9.75 7.54545C9.58818 7.54545 9.42999 7.49747 9.29544 7.40757C9.16089 7.31766 9.05602 7.18988 8.9941 7.04038C8.93217 6.89087 8.91597 6.72637 8.94754 6.56765C8.97911 6.40894 9.05703 6.26316 9.17146 6.14873C9.28588 6.03431 9.43167 5.95638 9.59038 5.92481C9.74909 5.89324 9.9136 5.90945 10.0631 5.97137C10.2126 6.0333 10.3404 6.13817 10.4303 6.27272C10.5202 6.40726 10.5682 6.56545 10.5682 6.72727C10.5682 6.94427 10.482 7.15238 10.3285 7.30581C10.1751 7.45925 9.967 7.54545 9.75 7.54545ZM14.6591 5.90909C14.4973 5.90909 14.3391 5.95708 14.2045 6.04698C14.07 6.13688 13.9651 6.26467 13.9032 6.41417C13.8413 6.56367 13.8251 6.72818 13.8566 6.88689C13.8882 7.0456 13.9661 7.19139 14.0805 7.30581C14.195 7.42024 14.3408 7.49816 14.4995 7.52973C14.6582 7.5613 14.8227 7.5451 14.9722 7.48317C15.1217 7.42125 15.2495 7.31638 15.3394 7.18183C15.4293 7.04728 15.4773 6.88909 15.4773 6.72727C15.4773 6.51028 15.3911 6.30217 15.2376 6.14873C15.0842 5.99529 14.8761 5.90909 14.6591 5.90909Z" fill="#3E64EF" stroke="white" stroke-width="0.8"/>
</svg>
