<svg width="14" height="14" viewBox="0 0 14 14" fill="none" xmlns="http://www.w3.org/2000/svg">
<path d="M10.6 0.159973H3.4C2.54099 0.160926 1.71744 0.502588 1.11003 1.11C0.502619 1.71741 0.160957 2.54096 0.160004 3.39997V10.6C0.160957 11.459 0.502619 12.2825 1.11003 12.8899C1.71744 13.4974 2.54099 13.839 3.4 13.84H10.6C11.459 13.839 12.2826 13.4974 12.89 12.8899C13.4974 12.2825 13.8391 11.459 13.84 10.6V3.39997C13.8391 2.54096 13.4974 1.71741 12.89 1.11C12.2826 0.502588 11.459 0.160926 10.6 0.159973ZM13.12 10.6C13.12 11.2683 12.8545 11.9093 12.3819 12.3819C11.9093 12.8545 11.2683 13.12 10.6 13.12H3.4C2.73166 13.12 2.09069 12.8545 1.61809 12.3819C1.1455 11.9093 0.880004 11.2683 0.880004 10.6V3.39997C0.880004 2.73163 1.1455 2.09066 1.61809 1.61806C2.09069 1.14547 2.73166 0.879973 3.4 0.879973H10.6C11.2683 0.879973 11.9093 1.14547 12.3819 1.61806C12.8545 2.09066 13.12 2.73163 13.12 3.39997V10.6ZM6.64 3.76789C6.64 3.69669 6.66112 3.62709 6.70067 3.56789C6.74023 3.50869 6.79646 3.46254 6.86224 3.4353C6.92802 3.40805 7.0004 3.40092 7.07024 3.41481C7.14007 3.4287 7.20422 3.46299 7.25456 3.51333C7.30491 3.56368 7.3392 3.62783 7.35309 3.69766C7.36698 3.76749 7.35985 3.83988 7.3326 3.90566C7.30535 3.97144 7.25921 4.02767 7.20001 4.06722C7.14081 4.10678 7.07121 4.12789 7 4.12789C6.90453 4.12789 6.81296 4.08996 6.74545 4.02245C6.67793 3.95494 6.64 3.86337 6.64 3.76789ZM8.17072 10.2321C8.17072 10.3275 8.1328 10.4191 8.06528 10.4866C7.99777 10.5541 7.9062 10.5921 7.81072 10.5921H6.18928C6.09381 10.5921 6.00224 10.5541 5.93473 10.4866C5.86721 10.4191 5.82928 10.3275 5.82928 10.2321C5.82928 10.1366 5.86721 10.045 5.93473 9.9775C6.00224 9.90998 6.09381 9.87205 6.18928 9.87205H6.64V5.51749H6.18928C6.09381 5.51749 6.00224 5.47957 5.93473 5.41205C5.86721 5.34454 5.82928 5.25297 5.82928 5.15749C5.82928 5.06202 5.86721 4.97045 5.93473 4.90293C6.00224 4.83542 6.09381 4.79749 6.18928 4.79749H7C7.09548 4.79749 7.18705 4.83542 7.25456 4.90293C7.32208 4.97045 7.36 5.06202 7.36 5.15749V9.87205H7.81072C7.9062 9.87205 7.99777 9.90998 8.06528 9.9775C8.1328 10.045 8.17072 10.1366 8.17072 10.2321Z" fill="black"/>
</svg>
