<svg width="34" height="34" viewBox="0 0 34 34" fill="none" xmlns="http://www.w3.org/2000/svg">
<path d="M16.9999 2.83333C14.198 2.83333 11.459 3.66419 9.12935 5.22084C6.79965 6.7775 4.98387 8.99003 3.91163 11.5786C2.83939 14.1673 2.55884 17.0157 3.10547 19.7638C3.65209 22.5118 5.00134 25.0361 6.98258 27.0173C8.96382 28.9986 11.4881 30.3478 14.2361 30.8945C16.9842 31.4411 19.8327 31.1605 22.4213 30.0883C25.0099 29.016 27.2224 27.2003 28.7791 24.8706C30.3357 22.5409 31.1666 19.8019 31.1666 17C31.1666 15.1396 30.8002 13.2974 30.0882 11.5786C29.3763 9.85987 28.3328 8.29815 27.0173 6.98265C25.7018 5.66715 24.1401 4.62364 22.4213 3.9117C20.7025 3.19976 18.8603 2.83333 16.9999 2.83333ZM16.9999 28.3333C14.7584 28.3333 12.5672 27.6686 10.7035 26.4233C8.8397 25.178 7.38708 23.408 6.52929 21.3371C5.6715 19.2662 5.44706 16.9874 5.88436 14.789C6.32166 12.5905 7.40105 10.5711 8.98605 8.98612C10.571 7.40112 12.5905 6.32173 14.7889 5.88443C16.9874 5.44713 19.2661 5.67157 21.337 6.52936C23.4079 7.38715 25.1779 8.83978 26.4232 10.7035C27.6686 12.5673 28.3333 14.7585 28.3333 17C28.3333 20.0058 27.1392 22.8885 25.0138 25.0139C22.8884 27.1393 20.0057 28.3333 16.9999 28.3333Z" fill="white"/>
<path d="M21.2499 15.5833H18.4166V12.75C18.4166 12.3743 18.2673 12.0139 18.0017 11.7483C17.736 11.4826 17.3756 11.3333 16.9999 11.3333C16.6242 11.3333 16.2639 11.4826 15.9982 11.7483C15.7325 12.0139 15.5833 12.3743 15.5833 12.75V15.5833H12.7499C12.3742 15.5833 12.0139 15.7326 11.7482 15.9983C11.4825 16.2639 11.3333 16.6243 11.3333 17C11.3333 17.3757 11.4825 17.7361 11.7482 18.0017C12.0139 18.2674 12.3742 18.4167 12.7499 18.4167H15.5833V21.25C15.5833 21.6257 15.7325 21.9861 15.9982 22.2517C16.2639 22.5174 16.6242 22.6667 16.9999 22.6667C17.3756 22.6667 17.736 22.5174 18.0017 22.2517C18.2673 21.9861 18.4166 21.6257 18.4166 21.25V18.4167H21.2499C21.6256 18.4167 21.986 18.2674 22.2517 18.0017C22.5173 17.7361 22.6666 17.3757 22.6666 17C22.6666 16.6243 22.5173 16.2639 22.2517 15.9983C21.986 15.7326 21.6256 15.5833 21.2499 15.5833Z" fill="white"/>
</svg>
